<svg xmlns="http://www.w3.org/2000/svg" xmlns:xlink="http://www.w3.org/1999/xlink" width="865" height="865">
  <g transform="translate(0 -176.66666666666674)">
    <path d="M24.24 792.6a6 6 0 0 1 0-8.47L607.46 200.9a6 6 0 0 1 8.5 0l223.93 223.95a6 6 0 0 1 0 8.5l-583.23 583.2a6 6 0 0 1-8.5 0z" stroke="#000" stroke-opacity="0" fill="#fff" fill-opacity="0"/>
    <use xlink:href="#a" transform="matrix(0.7071067811865476,-0.7071067811865475,0.7071067811865475,0.7071067811865476,27.071067811865476,788.3722941514382) translate(93.44791666666663 225.453125)"/>
    <defs>
      <path fill="#f2f2f2" d="M473-1349c438-1 655 221 652 661C1122-268 945-8 532 0H162v-1349h311zm42 1193c308-4 416-205 418-532 2-330-131-509-459-505H353v1037h162" id="b"/>
      <path fill="#f2f2f2" d="M1121-976c0 225-142 341-344 379L1177 0H957L591-575H353V0H162v-1349h482c281 3 477 100 477 373zM633-726c181-1 296-73 296-247 0-149-101-223-304-223H353v470h280" id="c"/>
      <path fill="#f2f2f2" d="M1034 0L896-382H333L196 0H0l510-1349h217L1228 0h-194zM847-531c-77-225-157-447-231-674-69 231-154 451-232 674h463" id="d"/>
      <path fill="#f2f2f2" d="M385-1193v494h676v158H385V0H194v-1349h891v156H385" id="e"/>
      <path fill="#f2f2f2" d="M709-1193V0H519v-1193H76v-156h1076v156H709" id="f"/>
      <g id="a">
        <use transform="matrix(0.10416666666666667,0,0,0.10416666666666667,0,0)" xlink:href="#b"/>
        <use transform="matrix(0.10416666666666667,0,0,0.10416666666666667,128.02083333333334,0)" xlink:href="#c"/>
        <use transform="matrix(0.10416666666666667,0,0,0.10416666666666667,256.0416666666667,0)" xlink:href="#d"/>
        <use transform="matrix(0.10416666666666667,0,0,0.10416666666666667,384.0625,0)" xlink:href="#e"/>
        <use transform="matrix(0.10416666666666667,0,0,0.10416666666666667,512.0833333333334,0)" xlink:href="#f"/>
      </g>
    </defs>
  </g>
</svg>